<svg width="800" height="600" viewBox="0 0 800 600" xmlns="http://www.w3.org/2000/svg">
<!-- Background -->
<rect width="800" height="600" fill="#050505"/>

<!-- Simplified Grid (Manual lines for GitHub Compatibility) -->
<g stroke="#1a1a1a" stroke-width="1">
    <line x1="0" y1="40" x2="800" y2="40" />
    <line x1="0" y1="80" x2="800" y2="80" />
    <line x1="0" y1="120" x2="800" y2="120" />
    <line x1="0" y1="160" x2="800" y2="160" />
    <line x1="0" y1="200" x2="800" y2="200" />
    <line x1="0" y1="240" x2="800" y2="240" />
    <line x1="0" y1="280" x2="800" y2="280" />
    <line x1="0" y1="320" x2="800" y2="320" />
    <line x1="0" y1="360" x2="800" y2="360" />
    <line x1="0" y1="400" x2="800" y2="400" />
    <line x1="0" y1="440" x2="800" y2="440" />
    <line x1="0" y1="480" x2="800" y2="480" />
    <line x1="0" y1="520" x2="800" y2="520" />
    <line x1="0" y1="560" x2="800" y2="560" />
    
    <line x1="40" y1="0" x2="40" y2="600" />
    <line x1="80" y1="0" x2="80" y2="600" />
    <line x1="120" y1="0" x2="120" y2="600" />
    <line x1="160" y1="0" x2="160" y2="600" />
    <line x1="200" y1="0" x2="200" y2="600" />
    <line x1="240" y1="0" x2="240" y2="600" />
    <line x1="280" y1="0" x2="280" y2="600" />
    <line x1="320" y1="0" x2="320" y2="600" />
    <line x1="360" y1="0" x2="360" y2="600" />
    <line x1="400" y1="0" x2="400" y2="600" />
    <line x1="440" y1="0" x2="440" y2="600" />
    <line x1="480" y1="0" x2="480" y2="600" />
    <line x1="520" y1="0" x2="520" y2="600" />
    <line x1="560" y1="0" x2="560" y2="600" />
    <line x1="600" y1="0" x2="600" y2="600" />
    <line x1="640" y1="0" x2="640" y2="600" />
    <line x1="680" y1="0" x2="680" y2="600" />
    <line x1="720" y1="0" x2="720" y2="600" />
    <line x1="760" y1="0" x2="760" y2="600" />
</g>

<!-- Central Axis lines -->
<line x1="400" y1="50" x2="400" y2="550" stroke="#333" stroke-width="2" stroke-dasharray="5,5"/>
<line x1="50" y1="300" x2="750" y2="300" stroke="#333" stroke-width="2" stroke-dasharray="5,5"/>

<!-- Center Hub -->
<circle cx="400" cy="300" r="40" fill="#050505" stroke="#3b82f6" stroke-width="3"/>
<text x="400" y="300" font-family="monospace" font-size="14" fill="#fff" text-anchor="middle" dominant-baseline="central" font-weight="bold">4C</text>

<!-- Quadrant 1: C1 (Top Left) -->
<g transform="translate(100, 80)">
    <rect x="0" y="0" width="260" height="180" rx="4" fill="#0a0a0a" stroke="#333" stroke-width="1"/>
    <path d="M 30 40 L 45 20 L 60 40 L 45 60 Z" fill="none" stroke="#a855f7" stroke-width="2"/>
    <text x="80" y="35" font-family="sans-serif" font-size="24" fill="#fff" font-weight="bold">C1: CONTROLLER</text>
    <text x="80" y="55" font-family="monospace" font-size="12" fill="#a855f7">THE ARCHITECT</text>
    <line x1="30" y1="80" x2="230" y2="80" stroke="#333" stroke-width="1"/>
    <text x="30" y="110" font-family="monospace" font-size="12" fill="#888">FUNCTION: Set Objective</text>
    <text x="30" y="130" font-family="monospace" font-size="12" fill="#888">RIGHTS:   Veto Power</text>
    <text x="30" y="150" font-family="monospace" font-size="12" fill="#888">MECHANISM: Soulbound Key</text>
</g>

<!-- Quadrant 2: C2 (Top Right) -->
<g transform="translate(440, 80)">
    <rect x="0" y="0" width="260" height="180" rx="4" fill="#0a0a0a" stroke="#333" stroke-width="1"/>
    <circle cx="45" cy="40" r="15" fill="none" stroke="#3b82f6" stroke-width="2"/>
    <circle cx="45" cy="40" r="5" fill="#3b82f6"/>
    <text x="80" y="35" font-family="sans-serif" font-size="24" fill="#fff" font-weight="bold">C2: CO-FOUNDER</text>
    <text x="80" y="55" font-family="monospace" font-size="12" fill="#3b82f6">GOVERNANCE NODE</text>
    <line x1="30" y1="80" x2="230" y2="80" stroke="#333" stroke-width="1"/>
    <text x="30" y="110" font-family="monospace" font-size="12" fill="#888">FUNCTION: Decision Routing</text>
    <text x="30" y="130" font-family="monospace" font-size="12" fill="#888">RIGHTS:   Dynamic Vesting</text>
    <text x="30" y="150" font-family="monospace" font-size="12" fill="#888">MECHANISM: Activity Proof</text>
</g>

<!-- Quadrant 3: C3 (Bottom Left) -->
<g transform="translate(100, 340)">
    <rect x="0" y="0" width="260" height="180" rx="4" fill="#0a0a0a" stroke="#333" stroke-width="1"/>
    <path d="M 30 30 L 20 40 L 30 50 M 60 30 L 70 40 L 60 50" fill="none" stroke="#22c55e" stroke-width="2"/>
    <text x="80" y="35" font-family="sans-serif" font-size="24" fill="#fff" font-weight="bold">C3: TALENT</text>
    <text x="80" y="55" font-family="monospace" font-size="12" fill="#22c55e">ASSET GENERATOR</text>
    <line x1="30" y1="80" x2="230" y2="80" stroke="#333" stroke-width="1"/>
    <text x="30" y="110" font-family="monospace" font-size="12" fill="#888">FUNCTION: Build Intel</text>
    <text x="30" y="130" font-family="monospace" font-size="12" fill="#888">RIGHTS:   Streaming Royalty</text>
    <text x="30" y="150" font-family="monospace" font-size="12" fill="#888">MECHANISM: Proof of Work</text>
</g>

<!-- Quadrant 4: C4 (Bottom Right) -->
<g transform="translate(440, 340)">
    <rect x="0" y="0" width="260" height="180" rx="4" fill="#0a0a0a" stroke="#333" stroke-width="1"/>
    <rect x="30" y="25" width="30" height="8" rx="2" fill="none" stroke="#eab308" stroke-width="2"/>
    <rect x="30" y="38" width="30" height="8" rx="2" fill="none" stroke="#eab308" stroke-width="2"/>
    <rect x="30" y="51" width="30" height="8" rx="2" fill="none" stroke="#eab308" stroke-width="2"/>
    <text x="80" y="35" font-family="sans-serif" font-size="24" fill="#fff" font-weight="bold">C4: CAPITAL</text>
    <text x="80" y="55" font-family="monospace" font-size="12" fill="#eab308">FUEL &amp; RESOURCES</text>
    <line x1="30" y1="80" x2="230" y2="80" stroke="#333" stroke-width="1"/>
    <text x="30" y="110" font-family="monospace" font-size="12" fill="#888">FUNCTION: Provide Liquidity</text>
    <text x="30" y="130" font-family="monospace" font-size="12" fill="#888">RIGHTS:   Priority Yield</text>
    <text x="30" y="150" font-family="monospace" font-size="12" fill="#888">MECHANISM: Restricted Vote</text>
</g>

<!-- Footer Branding -->
<text x="400" y="580" font-family="monospace" font-size="10" fill="#444" text-anchor="middle">THE 4C PROTOCOL • WANG4C.COM • 2026</text>


</svg>